<?xml version="1.0" encoding="utf-8"?>
<!-- Generator: Adobe Illustrator 23.0.3, SVG Export Plug-In . SVG Version: 6.00 Build 0)  -->
<svg version="1.1" id="Calque_1" xmlns="http://www.w3.org/2000/svg" xmlns:xlink="http://www.w3.org/1999/xlink" x="0px" y="0px"
	 viewBox="0 0 800 800" style="enable-background:new 0 0 800 800;" xml:space="preserve">
<style type="text/css">
	.st0{fill:#FFFFFF;stroke:#000000;stroke-width:0.5;stroke-miterlimit:10;}
	.st1{fill:#FFFFFF;stroke:#000000;stroke-width:4;stroke-miterlimit:10;}
	.st2{stroke:#000000;stroke-width:4;stroke-miterlimit:10;}
	.st3{fill:#FFFFFF;}
	.st4{stroke:#000000;stroke-width:3;stroke-miterlimit:10;}
</style>
<g id="Background">
</g>
<g id="Objects">
	<path class="st0" d="M384.2,444.8c19.9,126.6-17.5,248.7-165.1,239c-108.7-7.1-165.1-120.3-165.1-239
		c0-118.7,67.7-214.9,157.4-214.9C274.5,229.9,365.3,324,384.2,444.8z"/>
	<g>
		<path class="st1" d="M366.7,509.5c0,53.1-11.6,96.1-74.9,96.1c-40.1,0-72.6-43-72.6-96.1c0-53,30.2-96.1,70.4-96.1
			C336,413.4,366.7,454.9,366.7,509.5z"/>
		<g>
			<path class="st2" d="M367,509.5c0,11.3-0.3,22.7-1.8,34c-1.5,11.3-4,22.6-9.5,33c-2.7,5.2-6.2,10-10.5,14.1
				c-4.2,4.2-9.2,7.5-14.5,10.1c-5.3,2.6-11,4.3-16.7,5.5c-5.7,1.2-11.5,1.6-17.3,1.8c-1.4,0-2.9,0-4.3,0c-1.4,0-2.9-0.1-4.4-0.2
				c-2.9-0.2-5.9-0.7-8.7-1.5c-5.7-1.4-11.1-3.7-16.2-6.6c-5-2.9-9.6-6.5-13.7-10.5c-4.2-4-7.8-8.4-11.2-13
				c-6.6-9.4-11.5-19.8-15-30.7c-1.7-5.5-3.1-11-4.1-16.7c-1-5.6-1.6-11.3-1.8-17.1c-0.4-11.5,0.4-23,3-34.3
				c2.6-11.3,6.8-22.2,12.9-32.2c6.1-9.9,14.1-19,24.1-25.4c5-3.2,10.5-5.7,16.2-7.4c5.8-1.6,11.8-2.4,17.7-2.1
				c11.8,0.3,23.6,3.4,33.8,9.4c10.2,5.9,18.6,14.5,24.9,24.3c6.3,9.8,10.4,20.6,13.1,31.7c1.3,5.5,2.3,11.2,2.9,16.8
				C366.8,498.2,367.1,503.8,367,509.5z M366.4,509.5c-0.1-5.6-0.4-11.3-1.2-16.9c-0.8-5.6-1.9-11.1-3.5-16.5
				c-3.2-10.8-8.1-21-14.7-29.9c-6.6-8.9-15-16.4-24.5-21.5c-4.8-2.6-9.9-4.5-15.1-5.9c-5.2-1.4-10.6-2-16.1-2.1
				c-5.4-0.1-10.7,0.5-15.9,2c-5.1,1.4-10,3.7-14.6,6.5c-9.1,5.7-16.7,13.9-22.6,23.1c-5.9,9.3-10.1,19.6-12.9,30.4
				c-2.8,10.7-4.3,21.9-4.4,33c0,11.2,1.3,22.4,4.4,33.2c1.5,5.4,3.5,10.7,6,15.7c2.4,5.1,5.3,9.9,8.6,14.5
				c3.3,4.5,7.1,8.7,11.2,12.4c4.2,3.7,8.8,6.9,13.7,9.4c4.9,2.5,10.1,4.4,15.5,5.4c2.7,0.5,5.4,0.8,8.1,0.9c1.4,0,2.7,0.1,4.1,0
				c1.4,0,2.8-0.1,4.2-0.2c11.1-0.6,22.1-2.6,31.9-7.1c4.9-2.3,9.5-5.2,13.5-8.8c4-3.6,7.5-7.8,10.4-12.5
				c5.8-9.4,9.3-20.2,11.3-31.3C365.8,532.2,366.5,520.8,366.4,509.5z"/>
		</g>
	</g>
	<path d="M299,465.5c-4.1,0-8,0.8-11.8,2.4c6.9,4.1,11.8,13.4,11.8,24.1c0,14.6-8.9,26.5-19.9,26.5c-8.1,0-15-6.5-18.1-15.7
		c-1.1,5-1.8,10.2-1.8,15.7c0,29.3,17.8,53,39.7,53s39.7-23.7,39.7-53C338.7,489.2,320.9,465.5,299,465.5z"/>
	<g>
		<path class="st0" d="M322.2,156.4c0,0-20-69.8-63-81.9c-43-12-151.7,5-205.1,155.4C54.1,229.9,175.3,38.3,322.2,156.4z"/>
	</g>
	<path class="st0" d="M423.1,444.8c-19.9,126.6,17.5,248.7,165.1,239c108.7-7.1,165.1-120.3,165.1-239s-67.7-214.9-157.4-214.9
		C532.9,229.9,442,324,423.1,444.8z"/>
	<g>
		<path class="st3" d="M440.6,509.5c0,53.1,11.6,96.1,74.9,96.1c40.1,0,72.6-43,72.6-96.1c0-53-30.2-96.1-70.4-96.1
			C471.4,413.4,440.6,454.9,440.6,509.5z"/>
		<g>
			<path class="st4" d="M440.9,509.5c0,11.3,0.7,22.7,2.7,33.7c2,11.1,5.5,21.9,11.3,31.3c2.9,4.7,6.4,8.9,10.4,12.5
				c4,3.6,8.6,6.5,13.5,8.8c9.9,4.5,20.9,6.5,31.9,7.1c1.4,0.1,2.8,0.1,4.2,0.2c1.4,0,2.7,0,4.1,0c2.7-0.1,5.4-0.4,8.1-0.9
				c5.4-1,10.6-2.9,15.5-5.4c4.9-2.5,9.5-5.7,13.7-9.4c4.1-3.7,8-7.9,11.2-12.4c3.3-4.5,6.2-9.4,8.6-14.5c2.4-5.1,4.4-10.3,6-15.7
				c3.1-10.8,4.5-22,4.5-33.2c-0.1-11.2-1.6-22.3-4.4-33c-2.8-10.7-7.1-21.1-13-30.4c-5.9-9.2-13.5-17.4-22.6-23.1
				c-4.6-2.9-9.5-5.1-14.6-6.5c-5.2-1.5-10.5-2-15.8-2c-5.4,0.1-10.8,0.8-16.1,2.1c-5.2,1.4-10.3,3.3-15.1,5.9
				c-9.6,5.1-17.9,12.6-24.5,21.5c-6.6,8.9-11.5,19.1-14.7,29.9c-1.6,5.4-2.7,10.9-3.5,16.5C441.3,498.2,441,503.9,440.9,509.5z
				 M440.3,509.5c0-5.7,0.3-11.4,0.9-17c0.6-5.6,1.6-11.3,2.9-16.8c2.7-11.1,6.8-21.9,13.1-31.7c6.2-9.8,14.6-18.4,24.9-24.3
				c10.2-6,22-9.1,33.8-9.4c5.9-0.2,12,0.5,17.7,2.1c5.8,1.6,11.3,4.1,16.2,7.4c10,6.5,18,15.5,24.1,25.4
				c6.1,10,10.3,20.9,12.9,32.2c2.6,11.3,3.5,22.8,3,34.3c-0.2,5.7-0.8,11.5-1.8,17.1s-2.4,11.2-4.1,16.7
				c-3.4,10.9-8.4,21.3-15,30.7c-3.3,4.7-7,9.1-11.2,13c-4.1,4-8.7,7.6-13.7,10.5c-5,2.9-10.5,5.2-16.2,6.6
				c-2.8,0.7-5.8,1.2-8.7,1.5c-1.5,0.1-3,0.2-4.4,0.2s-2.9,0-4.3,0c-5.8-0.1-11.6-0.6-17.3-1.8c-5.7-1.2-11.4-2.9-16.7-5.5
				c-5.3-2.6-10.3-5.9-14.5-10.1c-4.3-4.1-7.8-9-10.5-14.1c-5.5-10.4-8-21.7-9.5-33C440.7,532.2,440.4,520.8,440.3,509.5z"/>
		</g>
	</g>
	<path d="M508.4,465.5c4.1,0,8,0.8,11.8,2.4c-6.9,4.1-11.8,13.4-11.8,24.1c0,14.6,8.9,26.5,19.9,26.5c8.1,0,15-6.5,18.1-15.7
		c1.2,5,1.8,10.2,1.8,15.7c0,29.3-17.8,53-39.7,53c-22,0-39.7-23.7-39.7-53C468.6,489.2,486.4,465.5,508.4,465.5z"/>
	<g>
		<path class="st0" d="M485.2,156.4c0,0,20-69.8,63-81.9s151.7,5,205.1,155.4C753.2,229.9,632.1,38.3,485.2,156.4z"/>
	</g>
</g>
</svg>
