<svg id="Calque_1" data-name="Calque 1" xmlns="http://www.w3.org/2000/svg" viewBox="0 0 701.09 613.53"><defs><style>.cls-1,.cls-2,.cls-4{fill:#fff;}.cls-1,.cls-2,.cls-3{stroke:#000;stroke-miterlimit:10;}.cls-1{stroke-width:0.5px;}.cls-2,.cls-3{stroke-width:2px;}</style></defs><title>bigeyes2</title><g id="Objects"><path class="cls-1" d="M384.24,444.81c19.86,126.63-17.5,248.66-165.06,239-108.71-7.09-165.06-120.31-165.06-239s67.67-214.93,157.42-214.93C274.45,229.89,365.31,324,384.24,444.81Z" transform="translate(-53.14 -71.09)"/><path class="cls-2" d="M366.74,509.51c0,53.06-11.65,96.07-74.92,96.07-40.11,0-72.64-43-72.64-96.07s30.24-96.07,70.36-96.07C336,413.44,366.74,454.86,366.74,509.51Z" transform="translate(-53.14 -71.09)"/><path class="cls-3" d="M367,509.51a280,280,0,0,1-1.75,34c-1.45,11.26-4,22.64-9.46,33a56,56,0,0,1-10.5,14.1,54.12,54.12,0,0,1-14.53,10.1,68.82,68.82,0,0,1-16.7,5.48A100.14,100.14,0,0,1,296.8,608c-1.44,0-2.89,0-4.33,0s-2.94-.09-4.4-.21a54.29,54.29,0,0,1-8.7-1.45,61.34,61.34,0,0,1-16.16-6.6,71.89,71.89,0,0,1-13.74-10.49,89.55,89.55,0,0,1-11.17-13.05,111.93,111.93,0,0,1-15-30.69,135.75,135.75,0,0,1-4.06-16.66,134.33,134.33,0,0,1,1.24-51.38,108.13,108.13,0,0,1,12.89-32.18c6.07-9.94,14.07-19,24.07-25.44a59.7,59.7,0,0,1,16.25-7.38,56.74,56.74,0,0,1,17.74-2.12,70.7,70.7,0,0,1,33.78,9.43A73.55,73.55,0,0,1,350.11,444a103,103,0,0,1,13.12,31.68,133.58,133.58,0,0,1,2.88,16.81A138.42,138.42,0,0,1,367,509.51Zm-.6,0a134.23,134.23,0,0,0-1.16-16.89,115.76,115.76,0,0,0-3.54-16.51A96.06,96.06,0,0,0,347,446.18a75.31,75.31,0,0,0-24.52-21.5,67.45,67.45,0,0,0-31.16-8.05,54.82,54.82,0,0,0-15.85,1.95,56,56,0,0,0-14.6,6.55c-9.15,5.69-16.74,13.88-22.62,23.13a108.31,108.31,0,0,0-13,30.35,133.57,133.57,0,0,0-4.41,33.05,117.64,117.64,0,0,0,4.45,33.19,100.53,100.53,0,0,0,6,15.73A89.84,89.84,0,0,0,239.89,575a77.88,77.88,0,0,0,11.21,12.43,66.71,66.71,0,0,0,13.69,9.4,56.54,56.54,0,0,0,15.5,5.39,58.26,58.26,0,0,0,8.1.94c1.36,0,2.7.06,4.09,0s2.78-.09,4.16-.18c11.06-.59,22.07-2.58,31.91-7.13a55.57,55.57,0,0,0,13.52-8.83,57.37,57.37,0,0,0,10.41-12.51c5.79-9.37,9.26-20.24,11.28-31.3A188.46,188.46,0,0,0,366.44,509.51Z" transform="translate(-53.14 -71.09)"/><path d="M299,465.47a30.78,30.78,0,0,0-11.76,2.36C294.14,472,299,481.2,299,492c0,14.63-8.9,26.49-19.87,26.49-8.07,0-15-6.45-18.1-15.67a69.28,69.28,0,0,0-1.77,15.67c0,29.27,17.79,53,39.74,53s39.74-23.72,39.74-53S320.93,465.47,299,465.47Z" transform="translate(-53.14 -71.09)"/><path class="cls-1" d="M322.21,156.35s-20-69.85-63-81.89-151.7,5-205.11,155.43C54.12,229.89,175.29,38.33,322.21,156.35Z" transform="translate(-53.14 -71.09)"/><path class="cls-1" d="M423.12,444.81c-19.85,126.63,17.51,248.66,165.06,239,108.71-7.09,165.06-120.32,165.06-239S685.57,229.88,595.83,229.88C532.91,229.89,442.05,324,423.12,444.81Z" transform="translate(-53.14 -71.09)"/><path class="cls-4" d="M440.63,509.51c0,53.06,11.64,96.07,74.92,96.07,40.11,0,72.63-43,72.63-96.07s-30.24-96.07-70.36-96.07C471.39,413.44,440.63,454.86,440.63,509.51Z" transform="translate(-53.14 -71.09)"/><path class="cls-3" d="M440.93,509.51a186.58,186.58,0,0,0,2.7,33.74c2,11.06,5.49,21.93,11.28,31.3a57.14,57.14,0,0,0,10.41,12.51,55.57,55.57,0,0,0,13.52,8.83c9.85,4.55,20.85,6.54,31.91,7.13,1.39.09,2.77.14,4.16.18s2.72,0,4.09,0a56.2,56.2,0,0,0,23.6-6.33,67.66,67.66,0,0,0,13.69-9.4A77.45,77.45,0,0,0,567.5,575a90.58,90.58,0,0,0,8.57-14.45,100.16,100.16,0,0,0,6-15.73,118.05,118.05,0,0,0,4.45-33.19,133.51,133.51,0,0,0-4.41-33.05,108.31,108.31,0,0,0-13-30.35c-5.88-9.24-13.47-17.44-22.62-23.13a56.3,56.3,0,0,0-14.6-6.55,54.48,54.48,0,0,0-15.85-1.95A69,69,0,0,0,500,418.77a68.07,68.07,0,0,0-15.09,5.91,75.29,75.29,0,0,0-24.52,21.5,96,96,0,0,0-14.72,29.93,114.41,114.41,0,0,0-3.54,16.51A130.6,130.6,0,0,0,440.93,509.51Zm-.6,0a144.28,144.28,0,0,1,.9-17,135.42,135.42,0,0,1,2.88-16.81A102.75,102.75,0,0,1,457.22,444a73.46,73.46,0,0,1,24.87-24.29,70.65,70.65,0,0,1,33.78-9.43,56.74,56.74,0,0,1,17.74,2.12,59.7,59.7,0,0,1,16.25,7.38c10,6.49,18,15.51,24.07,25.44a108.23,108.23,0,0,1,12.89,32.18,130.72,130.72,0,0,1,3,34.29A127.55,127.55,0,0,1,584,545.46a111.36,111.36,0,0,1-15,30.69,88.93,88.93,0,0,1-11.17,13.05,71.49,71.49,0,0,1-13.74,10.49,61.68,61.68,0,0,1-16.16,6.6,55.43,55.43,0,0,1-8.7,1.45c-1.46.12-3,.19-4.4.21s-2.88,0-4.33,0a99.17,99.17,0,0,1-17.3-1.79,68.82,68.82,0,0,1-16.7-5.48A54.31,54.31,0,0,1,462,590.6a56.22,56.22,0,0,1-10.49-14.1c-5.48-10.36-8-21.74-9.46-33A286.4,286.4,0,0,1,440.33,509.51Z" transform="translate(-53.14 -71.09)"/><path d="M508.39,465.47a30.73,30.73,0,0,1,11.75,2.36C513.22,472,508.39,481.2,508.39,492c0,14.63,8.89,26.49,19.87,26.49,8.08,0,15-6.45,18.1-15.67a69.28,69.28,0,0,1,1.77,15.67c0,29.27-17.79,53-39.74,53s-39.74-23.72-39.74-53S486.43,465.47,508.39,465.47Z" transform="translate(-53.14 -71.09)"/><path class="cls-1" d="M485.16,156.35s20-69.85,63-81.89,151.71,5,205.11,155.43C753.24,229.89,632.08,38.33,485.16,156.35Z" transform="translate(-53.14 -71.09)"/></g></svg>