<?xml version="1.0" encoding="utf-8"?>
<!-- Generator: Adobe Illustrator 23.0.3, SVG Export Plug-In . SVG Version: 6.00 Build 0)  -->
<svg version="1.1" id="Calque_1" xmlns="http://www.w3.org/2000/svg" xmlns:xlink="http://www.w3.org/1999/xlink" x="0px" y="0px"
	 viewBox="0 0 800 800" style="enable-background:new 0 0 800 800;" xml:space="preserve">
<style type="text/css">
	.st0{fill:#FFFFFF;stroke:#000000;stroke-width:0.5;stroke-miterlimit:10;}
</style>
<g id="Background">
</g>
<path class="st0" d="M384.2,444.8c19.9,126.6-17.5,248.7-165.1,239C110.4,676.7,54,563.5,54,444.8s67.7-214.9,157.4-214.9
	C274.5,229.9,365.3,324,384.2,444.8z"/>
<g>
	<path class="st0" d="M322.2,156.4c0,0-20-69.8-63-81.9c-43-12-151.7,5-205.1,155.4C54.1,229.9,175.3,38.3,322.2,156.4z"/>
</g>
<path class="st0" d="M423.1,444.8c-19.9,126.6,17.5,248.7,165.1,239c108.7-7.1,165.1-120.3,165.1-239s-67.7-214.9-157.4-214.9
	C532.9,229.9,442,324,423.1,444.8z"/>
<g>
	<path class="st0" d="M485.2,156.4c0,0,20-69.8,63-81.9s151.7,5,205.1,155.4C753.2,229.9,632.1,38.3,485.2,156.4z"/>
</g>
</svg>
